<?xml version="1.0" encoding="utf-8"?>
<!-- Generator: Adobe Illustrator 22.1.0, SVG Export Plug-In . SVG Version: 6.00 Build 0)  -->
<svg version="1.1" id="Layer_1" xmlns="http://www.w3.org/2000/svg" xmlns:xlink="http://www.w3.org/1999/xlink" x="0px" y="0px"
	 viewBox="0 0 500 500" style="enable-background:new 0 0 500 500;" xml:space="preserve">
<style type="text/css">
	.st0{fill:#FFFFFF;}
</style>
<path class="st0" d="M0,100L0,100c0,13.8,11.2,25,25,25h450c13.8,0,25-11.2,25-25v0c0-13.8-11.2-25-25-25H25C11.2,75,0,86.2,0,100z"
	/>
<path class="st0" d="M0,250L0,250c0,13.8,11.2,25,25,25h450c13.8,0,25-11.2,25-25v0c0-13.8-11.2-25-25-25H25C11.2,225,0,236.2,0,250
	z"/>
<path class="st0" d="M0,400L0,400c0,13.8,11.2,25,25,25h450c13.8,0,25-11.2,25-25v0c0-13.8-11.2-25-25-25H25C11.2,375,0,386.2,0,400
	z"/>
</svg>
